<?xml version="1.0" encoding="UTF-8"?>
<svg width="256" height="192" viewBox="0 0 256 192" fill="none" xmlns="http://www.w3.org/2000/svg">
  <rect width="256" height="192" rx="12" fill="#F3F4F6"/>
  <g opacity="0.9">
    <circle cx="76" cy="96" r="22" fill="#E5E7EB"/>
    <rect x="52" y="120" width="152" height="8" rx="4" fill="#E5E7EB"/>
    <rect x="100" y="64" width="104" height="12" rx="6" fill="#E5E7EB"/>
    <rect x="100" y="84" width="88" height="12" rx="6" fill="#E5E7EB"/>
    <rect x="100" y="104" width="64" height="12" rx="6" fill="#E5E7EB"/>
  </g>
  <g>
    <path d="M200 148H56c-2.2 0-4-1.8-4-4 0-1.1.5-2.2 1.3-2.9l31.1-27.1c1.5-1.3 3.7-1.3 5.1.1l14.6 14.8 36.3-33.5c1.5-1.4 3.8-1.4 5.3 0l55 50c.8.7 1.2 1.8 1.2 2.8 0 2.2-1.8 4-4 4z" fill="#D1D5DB"/>
    <circle cx="100" cy="84" r="10" fill="#D1D5DB"/>
  </g>
  <text x="128" y="172" text-anchor="middle" fill="#9CA3AF" font-family="Arial, Helvetica, sans-serif" font-size="12">Image not available</text>
</svg>